<svg xmlns="http://www.w3.org/2000/svg" fill="none" viewBox="0 0 180 38" height="38" width="180">
  <path fill="white" d="M15.045 0l3.08 3.017v31.966h-3.08V3.017L0 18.012v-3.017L15.045 0zm10.311 15h3.08v11.966c0 4.453 3.593 8.046 8.046 8.046s8.046-3.593 8.046-8.046V15h3.08v11.966c0 6.155-4.971 11.126-11.126 11.126S25.356 33.121 25.356 26.966V15zm41.017 0h3.08v11.966c0 4.453 3.593 8.046 8.046 8.046s8.046-3.593 8.046-8.046V15h3.08v11.966c0 6.155-4.971 11.126-11.126 11.126S66.373 33.121 66.373 26.966V15zm37.288 0h3.08v23.092h-3.08V15z"/>
  <text x="110" y="28" fill="white" font-family="Arial, sans-serif" font-weight="bold" font-size="24">FormFix</text>
</svg>
